<?xml version="1.0" encoding="UTF-8" standalone="no"?>
<svg
   xmlns:dc="http://purl.org/dc/elements/1.1/"
   xmlns:cc="http://creativecommons.org/ns#"
   xmlns:rdf="http://www.w3.org/1999/02/22-rdf-syntax-ns#"
   xmlns:svg="http://www.w3.org/2000/svg"
   xmlns="http://www.w3.org/2000/svg"
   xmlns:xlink="http://www.w3.org/1999/xlink"
   xmlns:sodipodi="http://sodipodi.sourceforge.net/DTD/sodipodi-0.dtd"
   xmlns:inkscape="http://www.inkscape.org/namespaces/inkscape"
   width="500"
   height="500"
   viewBox="0 0 132.29166 132.29167"
   version="1.1"
   id="svg1520"
   inkscape:export-filename="F:\projects\nextkind\website\public\media\logos\Nextkind-Logo-Square-Light-Background.png"
   inkscape:export-xdpi="96"
   inkscape:export-ydpi="96"
   inkscape:version="1.0.1 (3bc2e813f5, 2020-09-07)"
   sodipodi:docname="Nextkind-Logo-Square-Light-Background.svg">
  <defs
     id="defs1514">
    <linearGradient
       inkscape:collect="always"
       xlink:href="#linearGradient1207"
       id="linearGradient9566"
       gradientUnits="userSpaceOnUse"
       gradientTransform="matrix(1.8438371,0,0,-1.8438371,-3330.2415,-1312.9676)"
       x1="1803.9467"
       y1="-776.80414"
       x2="1873.3606"
       y2="-776.80414" />
    <linearGradient
       inkscape:collect="always"
       id="linearGradient1207">
      <stop
         style="stop-color:#00faff;stop-opacity:1"
         offset="0"
         id="stop1203" />
      <stop
         style="stop-color:#006ec3;stop-opacity:1"
         offset="1"
         id="stop1205" />
    </linearGradient>
    <linearGradient
       inkscape:collect="always"
       xlink:href="#linearGradient1207"
       id="linearGradient9562"
       gradientUnits="userSpaceOnUse"
       gradientTransform="matrix(0.41712908,-0.49917733,-0.49917733,-0.41712908,-1123.1857,613.19486)"
       x1="1803.9467"
       y1="-776.80414"
       x2="1873.3606"
       y2="-776.80414" />
    <linearGradient
       inkscape:collect="always"
       xlink:href="#linearGradient1207"
       id="linearGradient9560"
       gradientUnits="userSpaceOnUse"
       gradientTransform="matrix(1.5806486,0,0,1.5806486,-2842.5878,-1117.6659)"
       x1="1803.9467"
       y1="-776.80414"
       x2="1873.3606"
       y2="-776.80414" />
    <linearGradient
       inkscape:collect="always"
       xlink:href="#linearGradient1207"
       id="linearGradient2204"
       gradientUnits="userSpaceOnUse"
       gradientTransform="matrix(1.5806486,0,0,1.5806486,-2842.4517,-1116.3274)"
       x1="1803.9467"
       y1="-776.80414"
       x2="1873.3606"
       y2="-776.80414" />
    <linearGradient
       inkscape:collect="always"
       xlink:href="#linearGradient1207"
       id="linearGradient9562-7"
       gradientUnits="userSpaceOnUse"
       gradientTransform="matrix(0.23097855,-0.27641144,-0.27641144,-0.23097855,-562.44297,341.94985)"
       x1="1803.9467"
       y1="-776.80414"
       x2="1873.3606"
       y2="-776.80414" />
    <linearGradient
       inkscape:collect="always"
       xlink:href="#linearGradient1207"
       id="linearGradient989"
       gradientUnits="userSpaceOnUse"
       gradientTransform="matrix(1.5806486,0,0,1.5806486,-2842.5878,-1117.6659)"
       x1="1803.9467"
       y1="-776.80414"
       x2="1873.3606"
       y2="-776.80414" />
    <linearGradient
       inkscape:collect="always"
       xlink:href="#linearGradient1207"
       id="linearGradient991"
       gradientUnits="userSpaceOnUse"
       gradientTransform="matrix(1.5806486,0,0,1.5806486,-2842.5878,-1117.6659)"
       x1="1803.9467"
       y1="-776.80414"
       x2="1873.3606"
       y2="-776.80414" />
    <linearGradient
       inkscape:collect="always"
       xlink:href="#linearGradient1207"
       id="linearGradient993"
       gradientUnits="userSpaceOnUse"
       gradientTransform="matrix(1.5806486,0,0,1.5806486,-2842.5878,-1117.6659)"
       x1="1803.9467"
       y1="-776.80414"
       x2="1873.3606"
       y2="-776.80414" />
    <linearGradient
       inkscape:collect="always"
       xlink:href="#linearGradient1207"
       id="linearGradient995"
       gradientUnits="userSpaceOnUse"
       gradientTransform="matrix(1.5806486,0,0,1.5806486,-2842.5878,-1117.6659)"
       x1="1803.9467"
       y1="-776.80414"
       x2="1873.3606"
       y2="-776.80414" />
    <linearGradient
       inkscape:collect="always"
       xlink:href="#linearGradient1207"
       id="linearGradient997"
       gradientUnits="userSpaceOnUse"
       gradientTransform="matrix(1.5806486,0,0,1.5806486,-2842.5878,-1117.6659)"
       x1="1803.9467"
       y1="-776.80414"
       x2="1873.3606"
       y2="-776.80414" />
    <linearGradient
       inkscape:collect="always"
       xlink:href="#linearGradient1207"
       id="linearGradient999"
       gradientUnits="userSpaceOnUse"
       gradientTransform="matrix(1.5806486,0,0,1.5806486,-2842.5878,-1117.6659)"
       x1="1803.9467"
       y1="-776.80414"
       x2="1873.3606"
       y2="-776.80414" />
    <linearGradient
       inkscape:collect="always"
       xlink:href="#linearGradient1207"
       id="linearGradient1001"
       gradientUnits="userSpaceOnUse"
       gradientTransform="matrix(1.5806486,0,0,1.5806486,-2842.5878,-1117.6659)"
       x1="1803.9467"
       y1="-776.80414"
       x2="1873.3606"
       y2="-776.80414" />
    <linearGradient
       inkscape:collect="always"
       xlink:href="#linearGradient1207"
       id="linearGradient1003"
       gradientUnits="userSpaceOnUse"
       gradientTransform="matrix(1.5806486,0,0,1.5806486,-2842.5878,-1117.6659)"
       x1="1803.9467"
       y1="-776.80414"
       x2="1873.3606"
       y2="-776.80414" />
    <linearGradient
       inkscape:collect="always"
       xlink:href="#linearGradient1207"
       id="linearGradient1005"
       gradientUnits="userSpaceOnUse"
       gradientTransform="matrix(1.5806486,0,0,1.5806486,-2842.5878,-1117.6659)"
       x1="1803.9467"
       y1="-776.80414"
       x2="1873.3606"
       y2="-776.80414" />
    <linearGradient
       inkscape:collect="always"
       xlink:href="#linearGradient1207"
       id="linearGradient1007"
       gradientUnits="userSpaceOnUse"
       gradientTransform="matrix(1.5806486,0,0,1.5806486,-2842.5878,-1117.6659)"
       x1="1803.9467"
       y1="-776.80414"
       x2="1873.3606"
       y2="-776.80414" />
    <linearGradient
       inkscape:collect="always"
       xlink:href="#linearGradient1207"
       id="linearGradient1009"
       gradientUnits="userSpaceOnUse"
       gradientTransform="matrix(1.5806486,0,0,1.5806486,-2842.5878,-1117.6659)"
       x1="1803.9467"
       y1="-776.80414"
       x2="1873.3606"
       y2="-776.80414" />
  </defs>
  <sodipodi:namedview
     id="base"
     pagecolor="#ffffff"
     bordercolor="#666666"
     borderopacity="1.0"
     inkscape:pageopacity="0.0"
     inkscape:pageshadow="2"
     inkscape:zoom="0.64653567"
     inkscape:cx="116.83784"
     inkscape:cy="142.95758"
     inkscape:document-units="mm"
     inkscape:current-layer="layer1"
     inkscape:document-rotation="0"
     showgrid="true"
     units="px"
     borderlayer="true"
     inkscape:showpageshadow="false"
     inkscape:window-width="1920"
     inkscape:window-height="1027"
     inkscape:window-x="-8"
     inkscape:window-y="-8"
     inkscape:window-maximized="1"
     inkscape:snap-global="true"
     showguides="false">
    <inkscape:grid
       type="xygrid"
       id="grid1025" />
  </sodipodi:namedview>
  <metadata
     id="metadata1517">
    <rdf:RDF>
      <cc:Work
         rdf:about="">
        <dc:format>image/svg+xml</dc:format>
        <dc:type
           rdf:resource="http://purl.org/dc/dcmitype/StillImage" />
        <dc:title />
      </cc:Work>
    </rdf:RDF>
  </metadata>
  <g
     inkscape:label="Layer 1"
     inkscape:groupmode="layer"
     id="layer1">
    <path
       style="fill:url(#linearGradient9566);fill-opacity:1;stroke:none;stroke-width:0.691445;stroke-linecap:butt;stroke-linejoin:miter;stroke-miterlimit:4;stroke-dasharray:none;stroke-opacity:1"
       d="m 115.43022,37.374294 c -4.3607,24.598942 -17.083885,29.859298 -31.779756,30.557581 25.457296,12.347035 23.702896,31.172957 22.490346,49.869965 24.20357,-40.098886 19.9531,-62.282182 9.28941,-80.427546 z"
       id="path8730-8"
       sodipodi:nodetypes="cccc" />
    <path
       d="m 57.394795,39.927986 c -0.760166,1.61204 -2.683082,2.302726 -4.295393,1.54311 -1.612046,-0.760344 -2.302749,-2.68329 -1.542742,-4.295681 0.760088,-1.611999 2.683094,-2.302806 4.295318,-1.54255 1.61195,0.75992 2.302749,2.683278 1.542817,4.295121 z m -0.246814,-10.399594 -0.803285,1.704081 c -0.350872,-0.08981 -0.704259,-0.15388 -1.058115,-0.192132 l -0.156378,-1.87644 c -0.03746,-0.447996 -0.430608,-0.780663 -0.876284,-0.746003 l -1.229947,0.10265 c -0.448057,0.03748 -0.78082,0.430493 -0.743556,0.878252 l 0.156557,1.878006 c -0.345616,0.09706 -0.683796,0.218637 -1.011904,0.363452 l -1.074394,-1.54853 C 50.094187,29.722516 49.587429,29.63087 49.21828,29.88708 l -1.014255,0.703429 c -0.369494,0.256431 -0.460861,0.763521 -0.204432,1.132795 l 1.07322,1.54713 c -0.248263,0.254419 -0.480485,0.528403 -0.694269,0.82106 l -1.704166,-0.803259 c -0.406507,-0.191615 -0.891153,-0.01719 -1.083122,0.389009 l -0.526269,1.116221 c -0.191616,0.406618 -0.01597,0.891272 0.389003,1.083126 l 1.704182,0.80361 c -0.08979,0.350756 -0.153753,0.704502 -0.191913,1.058179 l -1.876918,0.15606 c -0.447835,0.03749 -0.780805,0.430606 -0.743447,0.878329 l 0.102543,1.229863 c 0.03748,0.447945 0.430381,0.78066 0.87611,0.746001 l 1.878298,-0.156041 c 0.09721,0.345503 0.218639,0.683357 0.363174,1.011321 l -1.548427,1.074486 c -0.369382,0.256206 -0.460804,0.763344 -0.204433,1.132758 l 0.703221,1.013895 c 0.256487,0.369267 0.763403,0.460855 1.132731,0.204476 l 1.547053,-1.073307 c 0.254696,0.2486 0.529018,0.480543 0.818365,0.697629 l -0.803215,1.704068 c -0.191738,0.406563 -0.01595,0.891338 0.388892,1.083179 l 1.116451,0.52611 c 0.406455,0.191791 0.891411,0.01774 1.082863,-0.388729 l 0.803648,-1.70435 c 0.350874,0.09029 0.704715,0.154055 1.058283,0.19207 l 0.156112,1.876696 c 0.03748,0.448109 0.430326,0.780831 0.876284,0.746024 l 1.230173,-0.102277 c 0.447659,-0.03749 0.780562,-0.430328 0.743636,-0.878331 l -0.156341,-1.87827 c 0.34539,-0.09727 0.683085,-0.218634 1.011189,-0.363394 l 1.074996,1.548442 c 0.255705,0.369323 0.762974,0.461027 1.132407,0.204767 l 1.014006,-0.703839 c 0.369043,-0.256043 0.460466,-0.763087 0.204311,-1.132178 l -1.07358,-1.547327 c 0.248713,-0.254588 0.481098,-0.528798 0.694459,-0.821135 l 1.704011,0.803258 c 0.406619,0.191617 0.891611,0.01774 1.08314,-0.388952 l 0.526337,-1.116305 c 0.191734,-0.406673 0.01684,-0.891471 -0.389007,-1.083093 l -1.704058,-0.80322 c 0.08981,-0.351433 0.15409,-0.704636 0.192248,-1.058339 l 1.876446,-0.156288 c 0.447999,-0.03748 0.780838,-0.430552 0.743551,-0.878243 L 64.499228,37.10397 c -0.03748,-0.447942 -0.430492,-0.780753 -0.876259,-0.746006 l -1.878057,0.156517 c -0.09718,-0.345224 -0.218897,-0.683491 -0.363678,-1.011529 l 1.548892,-1.074772 c 0.368927,-0.255979 0.460464,-0.763018 0.204985,-1.132449 l -0.703949,-1.013926 c -0.256601,-0.369269 -0.763507,-0.460747 -1.132571,-0.20465 l -1.547453,1.073669 c -0.254639,-0.248318 -0.528127,-0.481099 -0.818616,-0.697641 l 0.803403,-1.704138 c 0.191401,-0.406512 0.01684,-0.891542 -0.389002,-1.083105 l -1.11627,-0.526335 c -0.406452,-0.191674 -0.89117,-0.0172 -1.083126,0.388894"
       style="fill:url(#linearGradient9562);fill-opacity:1;fill-rule:nonzero;stroke:none;stroke-width:0.00417658"
       id="path154-3-4-4-2" />
    <circle
       style="fill:url(#linearGradient9560);fill-opacity:1;stroke:none;stroke-width:0.323317;stroke-linecap:round;stroke-linejoin:round;stroke-miterlimit:4;stroke-dasharray:none;stroke-opacity:1"
       id="path8749-9-2"
       cx="95.951393"
       cy="44.53915"
       r="9.4304876" />
    <circle
       style="fill:url(#linearGradient1009);fill-opacity:1;stroke:none;stroke-width:0.19758;stroke-linecap:round;stroke-linejoin:round;stroke-miterlimit:4;stroke-dasharray:none;stroke-opacity:1"
       id="path8749-9-3-81"
       cx="54.142586"
       cy="20.33427"
       r="5.7630754" />
    <text
       xml:space="preserve"
       style="font-size:36.5175px;line-height:1.25;font-family:Rajdhani;-inkscape-font-specification:Rajdhani;letter-spacing:0.701146px;fill:#333333;stroke-width:0.912937"
       x="6.1328444"
       y="81.007828"
       id="text2430-9-7-9"><tspan
         sodipodi:role="line"
         id="tspan2428-3-9-1"
         x="6.1328444"
         y="81.007828"
         style="font-style:normal;font-variant:normal;font-weight:bold;font-stretch:normal;font-family:Rajdhani;-inkscape-font-specification:'Rajdhani Bold';fill:#333333;stroke-width:0.912937">NEXT</tspan></text>
    <circle
       style="fill:url(#linearGradient1007);fill-opacity:1;stroke:none;stroke-width:0.0297117;stroke-linecap:round;stroke-linejoin:round;stroke-miterlimit:4;stroke-dasharray:none;stroke-opacity:1"
       id="path8749-9-3-8-8-2-3-5-3-1"
       cx="13.582727"
       cy="44.660107"
       r="0.86663347" />
    <circle
       style="fill:url(#linearGradient1005);fill-opacity:1;stroke:none;stroke-width:0.0702363;stroke-linecap:round;stroke-linejoin:round;stroke-miterlimit:4;stroke-dasharray:none;stroke-opacity:1"
       id="path8749-9-3-8-8-2-3-5-5-2"
       cx="24.331909"
       cy="38.3046"
       r="2.0486691" />
    <circle
       style="fill:url(#linearGradient1003);fill-opacity:1;stroke:none;stroke-width:0.0567651;stroke-linecap:round;stroke-linejoin:round;stroke-miterlimit:4;stroke-dasharray:none;stroke-opacity:1"
       id="path8749-9-3-8-8-2-3-5-9-6"
       cx="39.866425"
       cy="30.3673"
       r="1.655732" />
    <circle
       style="fill:url(#linearGradient1001);fill-opacity:1;stroke:none;stroke-width:0.0289238;stroke-linecap:round;stroke-linejoin:round;stroke-miterlimit:4;stroke-dasharray:none;stroke-opacity:1"
       id="path8749-9-3-8-8-2-3-5-91-7"
       cx="25.746655"
       cy="27.878685"
       r="0.8436625" />
    <circle
       style="fill:url(#linearGradient999);fill-opacity:1;stroke:none;stroke-width:0.0441915;stroke-linecap:round;stroke-linejoin:round;stroke-miterlimit:4;stroke-dasharray:none;stroke-opacity:1"
       id="path8749-9-3-8-8-2-3-5-29-9"
       cx="38.137417"
       cy="20.150988"
       r="1.2889912" />
    <circle
       style="fill:url(#linearGradient2204);fill-opacity:1;stroke:none;stroke-width:0.0522744;stroke-linecap:round;stroke-linejoin:round;stroke-miterlimit:4;stroke-dasharray:none;stroke-opacity:1"
       id="path8749-9-3-8-8-2-3-5-293-9"
       cx="69.053673"
       cy="16.223925"
       r="1.5247536" />
    <circle
       style="fill:url(#linearGradient997);fill-opacity:1;stroke:none;stroke-width:0.0567651;stroke-linecap:round;stroke-linejoin:round;stroke-miterlimit:4;stroke-dasharray:none;stroke-opacity:1"
       id="path8749-9-3-8-8-2-3-5-21-1"
       cx="68.419739"
       cy="22.980103"
       r="1.655732" />
    <circle
       style="fill:url(#linearGradient995);fill-opacity:1;stroke:none;stroke-width:0.107958;stroke-linecap:round;stroke-linejoin:round;stroke-miterlimit:4;stroke-dasharray:none;stroke-opacity:1"
       id="path8749-9-3-8-8-2-3-5-7-1"
       cx="76.985283"
       cy="29.29324"
       r="3.1488922" />
    <path
       d="m 91.28464,24.512461 c -0.42099,0.892635 -1.485774,1.275096 -2.378516,0.854466 -0.892657,-0.421045 -1.27519,-1.48583 -0.854339,-2.378668 0.42082,-0.892617 1.485716,-1.275138 2.378549,-0.854155 0.892531,0.420821 1.275071,1.485829 0.854306,2.378357 z m -0.136694,-5.758612 -0.444752,0.943607 C 90.508707,19.647696 90.31318,19.612236 90.117227,19.5911 l -0.08656,-1.039049 c -0.01941,-0.248096 -0.238413,-0.432286 -0.48518,-0.413107 l -0.681091,0.05687 c -0.248098,0.02066 -0.432399,0.238376 -0.411712,0.486304 l 0.08658,1.03992 c -0.191244,0.05367 -0.378609,0.121056 -0.560339,0.201234 l -0.594852,-0.857475 c -0.142014,-0.204433 -0.422551,-0.255202 -0.626999,-0.113362 l -0.561669,0.389515 c -0.204649,0.142017 -0.255258,0.422783 -0.1132,0.627267 l 0.594287,0.856699 c -0.137457,0.140864 -0.266044,0.292608 -0.384479,0.454652 l -0.943639,-0.444805 c -0.224883,-0.106125 -0.493397,-0.0097 -0.599724,0.215391 l -0.291483,0.618093 c -0.106251,0.225171 -0.01062,0.493513 0.21556,0.599751 l 0.943646,0.444982 c -0.04976,0.19419 -0.08478,0.390125 -0.106092,0.585947 l -1.039349,0.08634 c -0.248041,0.02068 -0.432285,0.238419 -0.411655,0.486355 l 0.05682,0.681018 c 0.01941,0.248042 0.238419,0.432285 0.485068,0.413106 l 1.040079,-0.08643 c 0.05422,0.191342 0.121023,0.378383 0.201141,0.56001 l -0.857272,0.595103 c -0.204717,0.141928 -0.255141,0.42267 -0.113465,0.627253 l 0.389452,0.561419 c 0.142176,0.204479 0.422673,0.255198 0.627164,0.113218 l 0.856674,-0.594321 c 0.141147,0.137669 0.292998,0.266105 0.45314,0.386321 l -0.444756,0.943593 c -0.106054,0.22517 -0.01062,0.493567 0.215271,0.599791 l 0.618169,0.29132 c 0.224883,0.106163 0.493621,0.0097 0.599633,-0.21527 l 0.444979,-0.943758 c 0.194408,0.04976 0.390287,0.08531 0.586053,0.106338 l 0.08657,1.039183 c 0.01941,0.248156 0.238318,0.432396 0.48518,0.413106 l 0.681062,-0.05659 c 0.247873,-0.02066 0.432169,-0.238316 0.411822,-0.486355 l -0.08655,-1.040078 c 0.191242,-0.05368 0.378272,-0.121058 0.559997,-0.201234 l 0.595223,0.857413 c 0.14159,0.204527 0.422504,0.255312 0.62711,0.113413 l 0.561469,-0.389732 c 0.204316,-0.141746 0.254984,-0.422557 0.113186,-0.626922 l -0.594597,-0.856815 c 0.137617,-0.140968 0.266383,-0.292775 0.384479,-0.454706 l 0.943572,0.444808 c 0.225175,0.106124 0.493733,0.0097 0.599789,-0.215391 l 0.291485,-0.618136 c 0.106073,-0.225177 0.01062,-0.493626 -0.21555,-0.599745 l -0.943573,-0.444759 c 0.04977,-0.194586 0.08477,-0.390182 0.106353,-0.586036 l 1.039014,-0.08656 c 0.248095,-0.02068 0.432397,-0.238415 0.411752,-0.4863 L 95.21851,22.948684 C 95.1991,22.70064 94.980089,22.516337 94.733215,22.535574 l -1.039912,0.0866 c -0.05423,-0.191169 -0.121339,-0.378502 -0.2014,-0.560137 l 0.857615,-0.595118 c 0.204096,-0.14175 0.254921,-0.422501 0.11347,-0.627076 L 94.073132,20.278387 C 93.931296,20.073906 93.65041,20.023241 93.446059,20.165025 l -0.85695,0.594527 c -0.140851,-0.137491 -0.292207,-0.266384 -0.453188,-0.386323 l 0.444977,-0.943646 c 0.106074,-0.225126 0.01062,-0.493683 -0.215316,-0.599747 l -0.618133,-0.291427 c -0.22496,-0.106126 -0.493404,-0.0097 -0.599723,0.215343"
       style="fill:url(#linearGradient9562-7);fill-opacity:1;fill-rule:nonzero;stroke:none;stroke-width:0.00231272"
       id="path154-3-4-4-2-5" />
    <circle
       style="fill:url(#linearGradient993);fill-opacity:1;stroke:none;stroke-width:0.0423953;stroke-linecap:round;stroke-linejoin:round;stroke-miterlimit:4;stroke-dasharray:none;stroke-opacity:1"
       id="path8749-9-3-8-8-2-3-5-8-4"
       cx="79.997963"
       cy="20.308064"
       r="1.2365997" />
    <circle
       style="fill:url(#linearGradient991);fill-opacity:1;stroke:none;stroke-width:0.0427297;stroke-linecap:round;stroke-linejoin:round;stroke-miterlimit:4;stroke-dasharray:none;stroke-opacity:1"
       id="path8749-9-3-8-8-2-3-5-275-5"
       cx="75.441101"
       cy="42.409557"
       r="1.2463598" />
    <circle
       style="fill:url(#linearGradient989);fill-opacity:1;stroke:none;stroke-width:0.0439999;stroke-linecap:round;stroke-linejoin:round;stroke-miterlimit:4;stroke-dasharray:none;stroke-opacity:1"
       id="path8749-9-3-8-8-2-3-5-23-8"
       cx="103.00346"
       cy="30.406523"
       r="1.2834058" />
    <text
       xml:space="preserve"
       style="font-size:36.5175px;line-height:1.25;font-family:Rajdhani;-inkscape-font-specification:Rajdhani;fill:#333333;stroke-width:0.912937"
       x="28.103342"
       y="110.72527"
       id="text1029"><tspan
         sodipodi:role="line"
         id="tspan1027"
         x="28.103342"
         y="110.72527"
         style="font-style:normal;font-variant:normal;font-weight:bold;font-stretch:normal;font-family:Rajdhani;-inkscape-font-specification:'Rajdhani Bold';fill:#333333;stroke-width:0.912937">KIND</tspan></text>
  </g>
</svg>
