<?xml version="1.0" encoding="UTF-8" standalone="no"?>
<svg
   xmlns:dc="http://purl.org/dc/elements/1.1/"
   xmlns:cc="http://creativecommons.org/ns#"
   xmlns:rdf="http://www.w3.org/1999/02/22-rdf-syntax-ns#"
   xmlns:svg="http://www.w3.org/2000/svg"
   xmlns="http://www.w3.org/2000/svg"
   xmlns:xlink="http://www.w3.org/1999/xlink"
   xmlns:sodipodi="http://sodipodi.sourceforge.net/DTD/sodipodi-0.dtd"
   xmlns:inkscape="http://www.inkscape.org/namespaces/inkscape"
   width="300"
   height="70"
   viewBox="0 0 79.374998 18.520834"
   version="1.1"
   id="svg1520"
   inkscape:export-filename="F:\projects\nextkind\logo\Nextkind Logo 300x70\Nextkind Logo 300x70.png"
   inkscape:export-xdpi="96"
   inkscape:export-ydpi="96"
   inkscape:version="1.0.1 (3bc2e813f5, 2020-09-07)"
   sodipodi:docname="Nextkind Logo Dark Background 300x70.svg">
  <defs
     id="defs1514">
    <linearGradient
       inkscape:collect="always"
       xlink:href="#linearGradient1207"
       id="linearGradient9566"
       gradientUnits="userSpaceOnUse"
       gradientTransform="matrix(0.32975237,0,0,-0.32975237,-561.14311,-237.29353)"
       x1="1803.9467"
       y1="-776.80414"
       x2="1873.3606"
       y2="-776.80414" />
    <linearGradient
       inkscape:collect="always"
       id="linearGradient1207">
      <stop
         style="stop-color:#00faff;stop-opacity:1"
         offset="0"
         id="stop1203" />
      <stop
         style="stop-color:#006ec3;stop-opacity:1"
         offset="1"
         id="stop1205" />
    </linearGradient>
    <linearGradient
       inkscape:collect="always"
       xlink:href="#linearGradient1207"
       id="linearGradient9562"
       gradientUnits="userSpaceOnUse"
       gradientTransform="matrix(0.07459948,-0.08927301,-0.08927301,-0.07459948,-166.43256,107.182)"
       x1="1803.9467"
       y1="-776.80414"
       x2="1873.3606"
       y2="-776.80414" />
    <linearGradient
       inkscape:collect="always"
       xlink:href="#linearGradient1207"
       id="linearGradient9560"
       gradientUnits="userSpaceOnUse"
       gradientTransform="matrix(0.28268364,0,0,0.28268364,-473.93095,-202.36569)"
       x1="1803.9467"
       y1="-776.80414"
       x2="1873.3606"
       y2="-776.80414" />
    <linearGradient
       inkscape:collect="always"
       xlink:href="#linearGradient1207"
       id="linearGradient9562-7"
       gradientUnits="userSpaceOnUse"
       gradientTransform="matrix(0.04130827,-0.0494335,-0.0494335,-0.04130827,-66.149181,58.672475)"
       x1="1803.9467"
       y1="-776.80414"
       x2="1873.3606"
       y2="-776.80414" />
    <linearGradient
       inkscape:collect="always"
       xlink:href="#linearGradient1207"
       id="linearGradient2194"
       gradientUnits="userSpaceOnUse"
       gradientTransform="matrix(0.28268364,0,0,0.28268364,-473.93095,-202.36569)"
       x1="1803.9467"
       y1="-776.80414"
       x2="1873.3606"
       y2="-776.80414" />
    <linearGradient
       inkscape:collect="always"
       xlink:href="#linearGradient1207"
       id="linearGradient2196"
       gradientUnits="userSpaceOnUse"
       gradientTransform="matrix(0.28268364,0,0,0.28268364,-473.93095,-202.36569)"
       x1="1803.9467"
       y1="-776.80414"
       x2="1873.3606"
       y2="-776.80414" />
    <linearGradient
       inkscape:collect="always"
       xlink:href="#linearGradient1207"
       id="linearGradient2198"
       gradientUnits="userSpaceOnUse"
       gradientTransform="matrix(0.28268364,0,0,0.28268364,-473.93095,-202.36569)"
       x1="1803.9467"
       y1="-776.80414"
       x2="1873.3606"
       y2="-776.80414" />
    <linearGradient
       inkscape:collect="always"
       xlink:href="#linearGradient1207"
       id="linearGradient2200"
       gradientUnits="userSpaceOnUse"
       gradientTransform="matrix(0.28268364,0,0,0.28268364,-473.93095,-202.36569)"
       x1="1803.9467"
       y1="-776.80414"
       x2="1873.3606"
       y2="-776.80414" />
    <linearGradient
       inkscape:collect="always"
       xlink:href="#linearGradient1207"
       id="linearGradient2202"
       gradientUnits="userSpaceOnUse"
       gradientTransform="matrix(0.28268364,0,0,0.28268364,-473.93095,-202.36569)"
       x1="1803.9467"
       y1="-776.80414"
       x2="1873.3606"
       y2="-776.80414" />
    <linearGradient
       inkscape:collect="always"
       xlink:href="#linearGradient1207"
       id="linearGradient2204"
       gradientUnits="userSpaceOnUse"
       gradientTransform="matrix(0.28268364,0,0,0.28268364,-473.90656,-202.12633)"
       x1="1803.9467"
       y1="-776.80414"
       x2="1873.3606"
       y2="-776.80414" />
    <linearGradient
       inkscape:collect="always"
       xlink:href="#linearGradient1207"
       id="linearGradient2206"
       gradientUnits="userSpaceOnUse"
       gradientTransform="matrix(0.28268364,0,0,0.28268364,-473.93095,-202.36569)"
       x1="1803.9467"
       y1="-776.80414"
       x2="1873.3606"
       y2="-776.80414" />
    <linearGradient
       inkscape:collect="always"
       xlink:href="#linearGradient1207"
       id="linearGradient2208"
       gradientUnits="userSpaceOnUse"
       gradientTransform="matrix(0.28268364,0,0,0.28268364,-473.93095,-202.36569)"
       x1="1803.9467"
       y1="-776.80414"
       x2="1873.3606"
       y2="-776.80414" />
    <linearGradient
       inkscape:collect="always"
       xlink:href="#linearGradient1207"
       id="linearGradient2210"
       gradientUnits="userSpaceOnUse"
       gradientTransform="matrix(0.28268364,0,0,0.28268364,-473.93095,-202.36569)"
       x1="1803.9467"
       y1="-776.80414"
       x2="1873.3606"
       y2="-776.80414" />
    <linearGradient
       inkscape:collect="always"
       xlink:href="#linearGradient1207"
       id="linearGradient2212"
       gradientUnits="userSpaceOnUse"
       gradientTransform="matrix(0.28268364,0,0,0.28268364,-473.93095,-202.36569)"
       x1="1803.9467"
       y1="-776.80414"
       x2="1873.3606"
       y2="-776.80414" />
    <linearGradient
       inkscape:collect="always"
       xlink:href="#linearGradient1207"
       id="linearGradient2214"
       gradientUnits="userSpaceOnUse"
       gradientTransform="matrix(0.28268364,0,0,0.28268364,-473.93095,-202.36569)"
       x1="1803.9467"
       y1="-776.80414"
       x2="1873.3606"
       y2="-776.80414" />
    <linearGradient
       inkscape:collect="always"
       xlink:href="#linearGradient1207"
       id="linearGradient2216"
       gradientUnits="userSpaceOnUse"
       gradientTransform="matrix(0.28268364,0,0,0.28268364,-473.93095,-202.36569)"
       x1="1803.9467"
       y1="-776.80414"
       x2="1873.3606"
       y2="-776.80414" />
  </defs>
  <sodipodi:namedview
     id="base"
     pagecolor="#ffffff"
     bordercolor="#666666"
     borderopacity="1.0"
     inkscape:pageopacity="0.0"
     inkscape:pageshadow="2"
     inkscape:zoom="2.5861427"
     inkscape:cx="120.15945"
     inkscape:cy="40.81665"
     inkscape:document-units="mm"
     inkscape:current-layer="layer1"
     inkscape:document-rotation="0"
     showgrid="false"
     units="px"
     borderlayer="true"
     inkscape:showpageshadow="false"
     inkscape:window-width="1920"
     inkscape:window-height="1027"
     inkscape:window-x="-8"
     inkscape:window-y="-8"
     inkscape:window-maximized="1" />
  <metadata
     id="metadata1517">
    <rdf:RDF>
      <cc:Work
         rdf:about="">
        <dc:format>image/svg+xml</dc:format>
        <dc:type
           rdf:resource="http://purl.org/dc/dcmitype/StillImage" />
        <dc:title></dc:title>
      </cc:Work>
    </rdf:RDF>
  </metadata>
  <g
     inkscape:label="Layer 1"
     inkscape:groupmode="layer"
     id="layer1">
    <path
       style="fill:url(#linearGradient9566);fill-opacity:1;stroke:none;stroke-width:0.123658;stroke-linecap:butt;stroke-linejoin:miter;stroke-miterlimit:4;stroke-dasharray:none;stroke-opacity:1"
       d="m 55.081843,4.2021051 c -0.779868,4.3992826 -3.055282,5.3400444 -5.683499,5.4649269 4.55279,2.208141 4.239035,5.574971 4.022185,8.918748 4.328569,-7.171289 3.56841,-11.138553 1.661314,-14.3836749 z"
       id="path8730-8"
       sodipodi:nodetypes="cccc" />
    <path
       d="M 44.702775,4.6588082 C 44.566827,4.9471052 44.222931,5.0706285 43.934586,4.9347776 43.646288,4.7987985 43.522763,4.4548979 43.658681,4.1665373 43.794615,3.878247 44.138526,3.7547028 44.426856,3.8906669 c 0.288283,0.1359054 0.411823,0.4798794 0.275919,0.7681413 z m -0.04414,-1.8598659 -0.143663,0.304758 c -0.06275,-0.016055 -0.125949,-0.027518 -0.189231,-0.034358 l -0.02797,-0.3355834 c -0.0067,-0.080122 -0.07701,-0.1396141 -0.156714,-0.1334163 l -0.219965,0.018361 c -0.08013,0.00667 -0.139643,0.076989 -0.132977,0.157068 l 0.028,0.3358622 c -0.06181,0.01736 -0.122289,0.0391 -0.180969,0.065 l -0.192144,-0.27694 c -0.04587,-0.066028 -0.136497,-0.082418 -0.202515,-0.036602 l -0.181391,0.1258017 c -0.06608,0.045865 -0.08242,0.1365487 -0.03656,0.2025892 l 0.191937,0.2766893 c -0.0444,0.045497 -0.08593,0.094503 -0.124165,0.1468391 L 42.785535,3.4713554 c -0.0727,-0.034274 -0.159374,-0.00311 -0.193708,0.06957 l -0.09412,0.1996241 c -0.03427,0.072719 -0.0029,0.1593948 0.06957,0.1937064 l 0.304776,0.1437171 c -0.01606,0.062727 -0.0275,0.1259943 -0.03432,0.1892451 l -0.335667,0.027906 c -0.08009,0.00667 -0.139641,0.077006 -0.13296,0.1570811 l 0.01833,0.219949 c 0.0067,0.08011 0.07697,0.1396128 0.156684,0.133415 l 0.335916,-0.027914 c 0.01738,0.061788 0.0391,0.1222106 0.06495,0.1808653 l -0.27692,0.192161 c -0.06606,0.045823 -0.08241,0.1365172 -0.03656,0.202583 l 0.125763,0.1813243 c 0.04587,0.066043 0.136528,0.082418 0.202578,0.036567 l 0.276681,-0.1919507 c 0.04555,0.044457 0.09461,0.085945 0.146357,0.1247645 L 43.239237,5.808725 c -0.03429,0.072714 -0.0029,0.1594079 0.06955,0.1937158 l 0.199668,0.094091 c 0.07269,0.034295 0.159421,0.00318 0.19366,-0.069522 L 43.84584,5.722203 c 0.06275,0.01615 0.12603,0.02755 0.189263,0.034345 l 0.02792,0.3356289 c 0.0067,0.08014 0.07696,0.1396441 0.156715,0.133419 l 0.220003,-0.018291 c 0.08006,-0.0067 0.139596,-0.076962 0.132993,-0.1570808 L 44.544774,5.714314 c 0.06177,-0.017401 0.122162,-0.0391 0.180843,-0.064986 l 0.192251,0.276924 c 0.04573,0.066052 0.13645,0.082453 0.202518,0.036616 l 0.181346,-0.1258752 c 0.066,-0.045792 0.08235,-0.1364694 0.03654,-0.2024789 L 45.146278,5.3577898 c 0.04448,-0.045531 0.08604,-0.094565 0.124197,-0.1468514 l 0.304743,0.1436546 c 0.07272,0.03427 0.159457,0.00315 0.193711,-0.069559 l 0.09413,-0.1996399 c 0.03429,-0.07273 0.003,-0.1594308 -0.06957,-0.1937018 L 45.488731,4.748047 c 0.01606,-0.062852 0.02756,-0.1260176 0.03438,-0.1892729 l 0.335586,-0.027953 c 0.08012,-0.00667 0.139644,-0.077005 0.132977,-0.1570654 l -0.01833,-0.2200139 c -0.0067,-0.08011 -0.07699,-0.1396301 -0.156711,-0.1334162 l -0.335872,0.02799 C 45.463371,3.9865796 45.441601,3.92608 45.415721,3.8674141 L 45.69272,3.6752053 C 45.7587,3.6294283 45.77507,3.5387471 45.72938,3.472678 L 45.603488,3.2913436 c -0.04589,-0.06604 -0.136547,-0.082402 -0.202549,-0.036599 l -0.276747,0.1920149 c -0.04554,-0.044413 -0.09445,-0.086042 -0.146402,-0.1247657 l 0.143681,-0.3047697 c 0.03423,-0.072701 0.003,-0.1594432 -0.06957,-0.1937028 l -0.199638,-0.094125 c -0.07269,-0.034283 -0.159375,-0.00311 -0.193705,0.069546"
       style="fill:url(#linearGradient9562);fill-opacity:1;fill-rule:nonzero;stroke:none;stroke-width:0.00074694"
       id="path154-3-4-4-2" />
    <circle
       style="fill:url(#linearGradient9560);fill-opacity:1;stroke:none;stroke-width:0.0578217;stroke-linecap:round;stroke-linejoin:round;stroke-miterlimit:4;stroke-dasharray:none;stroke-opacity:1"
       id="path8749-9-2"
       cx="51.598248"
       cy="5.4834719"
       r="1.6865507" />
    <circle
       style="fill:url(#linearGradient2216);fill-opacity:1;stroke:none;stroke-width:0.0353355;stroke-linecap:round;stroke-linejoin:round;stroke-miterlimit:4;stroke-dasharray:none;stroke-opacity:1"
       id="path8749-9-3-81"
       cx="44.121147"
       cy="1.1546643"
       r="1.0306699" />
    <text
       xml:space="preserve"
       style="font-size:19.0844px;line-height:1.25;font-family:Rajdhani;-inkscape-font-specification:Rajdhani;fill:#ffffff;stroke-width:0.477112;"
       x="-0.49868718"
       y="18.491722"
       id="text2430-9-7-9"><tspan
         sodipodi:role="line"
         id="tspan2428-3-9-1"
         x="-0.49868718"
         y="18.491722"
         style="font-style:normal;font-variant:normal;font-weight:bold;font-stretch:normal;font-family:Rajdhani;-inkscape-font-specification:'Rajdhani Bold';fill:#ffffff;stroke-width:0.477112;">NEXTK  ND</tspan></text>
    <circle
       style="fill:url(#linearGradient2214);fill-opacity:1;stroke:none;stroke-width:0.00531365;stroke-linecap:round;stroke-linejoin:round;stroke-miterlimit:4;stroke-dasharray:none;stroke-opacity:1"
       id="path8749-9-3-8-8-2-3-5-3-1"
       cx="36.867413"
       cy="5.5051036"
       r="0.15498896" />
    <circle
       style="fill:url(#linearGradient2212);fill-opacity:1;stroke:none;stroke-width:0.0125611;stroke-linecap:round;stroke-linejoin:round;stroke-miterlimit:4;stroke-dasharray:none;stroke-opacity:1"
       id="path8749-9-3-8-8-2-3-5-5-2"
       cx="38.789799"
       cy="4.3684816"
       r="0.36638457" />
    <circle
       style="fill:url(#linearGradient2210);fill-opacity:1;stroke:none;stroke-width:0.0101519;stroke-linecap:round;stroke-linejoin:round;stroke-miterlimit:4;stroke-dasharray:none;stroke-opacity:1"
       id="path8749-9-3-8-8-2-3-5-9-6"
       cx="41.567997"
       cy="2.9489765"
       r="0.29611161" />
    <circle
       style="fill:url(#linearGradient2208);fill-opacity:1;stroke:none;stroke-width:0.0051728;stroke-linecap:round;stroke-linejoin:round;stroke-miterlimit:4;stroke-dasharray:none;stroke-opacity:1"
       id="path8749-9-3-8-8-2-3-5-91-7"
       cx="39.042812"
       cy="2.5039065"
       r="0.15088084" />
    <circle
       style="fill:url(#linearGradient2206);fill-opacity:1;stroke:none;stroke-width:0.00790322;stroke-linecap:round;stroke-linejoin:round;stroke-miterlimit:4;stroke-dasharray:none;stroke-opacity:1"
       id="path8749-9-3-8-8-2-3-5-29-9"
       cx="41.258781"
       cy="1.1218866"
       r="0.23052353" />
    <circle
       style="fill:url(#linearGradient2204);fill-opacity:1;stroke:none;stroke-width:0.0093488;stroke-linecap:round;stroke-linejoin:round;stroke-miterlimit:4;stroke-dasharray:none;stroke-opacity:1"
       id="path8749-9-3-8-8-2-3-5-293-9"
       cx="46.787849"
       cy="0.4195669"
       r="0.27268729" />
    <circle
       style="fill:url(#linearGradient2202);fill-opacity:1;stroke:none;stroke-width:0.0101519;stroke-linecap:round;stroke-linejoin:round;stroke-miterlimit:4;stroke-dasharray:none;stroke-opacity:1"
       id="path8749-9-3-8-8-2-3-5-21-1"
       cx="46.67448"
       cy="1.6278478"
       r="0.29611161" />
    <circle
       style="fill:url(#linearGradient2200);fill-opacity:1;stroke:none;stroke-width:0.019307;stroke-linecap:round;stroke-linejoin:round;stroke-miterlimit:4;stroke-dasharray:none;stroke-opacity:1"
       id="path8749-9-3-8-8-2-3-5-7-1"
       cx="48.206345"
       cy="2.7568913"
       r="0.5631488" />
    <path
       d="m 50.763644,1.9018911 c -0.07529,0.159639 -0.265718,0.2280393 -0.425374,0.1528133 -0.159644,-0.075296 -0.228055,-0.2657261 -0.152791,-0.425401 0.07526,-0.1596362 0.265706,-0.2280459 0.425379,-0.1527588 0.159621,0.075256 0.228035,0.2657262 0.152786,0.4253465 z m -0.02444,-1.02987124 -0.07954,0.16875544 c -0.03478,-0.0089 -0.06975,-0.01524 -0.104793,-0.019024 l -0.01548,-0.18582418 c -0.0035,-0.0443665 -0.04264,-0.0773084 -0.08677,-0.0738771 l -0.121808,0.0101712 c -0.04437,0.003686 -0.07733,0.042631 -0.07363,0.0869737 l 0.01547,0.18597918 c -0.0342,0.00961 -0.06771,0.021651 -0.100212,0.035992 L 50.066057,0.9278146 C 50.040647,0.8912514 49.990487,0.8821775 49.953925,0.907548 l -0.100443,0.0696618 c -0.0366,0.0253979 -0.04565,0.0756105 -0.02023,0.1121801 l 0.106283,0.1532126 c -0.02458,0.025194 -0.04758,0.052331 -0.06876,0.08131 l -0.168762,-0.079546 c -0.04022,-0.018981 -0.08824,-0.00173 -0.107254,0.038523 l -0.05213,0.1105384 c -0.01899,0.040266 -0.0018,0.088263 0.03855,0.1072609 l 0.168762,0.079581 c -0.0089,0.034735 -0.01517,0.069766 -0.01898,0.1047914 l -0.185879,0.015445 c -0.04436,0.00368 -0.07731,0.04264 -0.07362,0.086981 l 0.01016,0.1217927 c 0.0035,0.044361 0.04264,0.077308 0.08675,0.073878 l 0.186008,-0.015458 c 0.0097,0.034216 0.02164,0.067671 0.03597,0.1001517 l -0.153313,0.1064037 c -0.03661,0.025377 -0.04563,0.075595 -0.02028,0.1121771 l 0.06965,0.100405 c 0.02542,0.03657 0.07559,0.045638 0.112163,0.020248 l 0.153207,-0.1062897 c 0.02523,0.024618 0.0524,0.04759 0.08104,0.069085 l -0.07954,0.1687524 c -0.01898,0.040267 -0.0018,0.088271 0.0385,0.1072668 l 0.110554,0.052104 c 0.04022,0.018989 0.08828,0.00173 0.107236,-0.038496 l 0.07958,-0.168782 c 0.03477,0.00893 0.0698,0.015258 0.10481,0.01902 l 0.01549,0.1858477 c 0.0035,0.044377 0.04262,0.077326 0.08677,0.073879 l 0.121802,-0.010122 c 0.04433,-0.00372 0.07729,-0.042617 0.07365,-0.086981 l -0.01548,-0.1860091 c 0.0342,-0.00964 0.06765,-0.021651 0.100151,-0.035987 l 0.106451,0.1533405 c 0.02533,0.036576 0.07556,0.045657 0.112151,0.020276 l 0.100413,-0.069701 c 0.03654,-0.025354 0.0456,-0.07557 0.02023,-0.1121193 L 51.00925,2.2889385 c 0.02461,-0.025212 0.04764,-0.052364 0.06876,-0.081316 l 0.168749,0.079546 c 0.04027,0.018976 0.0883,0.00173 0.107267,-0.03852 l 0.05213,-0.1105482 c 0.01898,-0.040272 0.0018,-0.088282 -0.03855,-0.1072589 l -0.168747,-0.079541 c 0.0089,-0.034802 0.01517,-0.06978 0.01903,-0.1048068 l 0.185817,-0.015476 c 0.04437,-0.00368 0.07733,-0.04264 0.07364,-0.086972 l -0.01016,-0.1218288 c -0.0035,-0.044361 -0.04264,-0.077319 -0.08679,-0.073878 l -0.185978,0.01549 c -0.0097,-0.034186 -0.0217,-0.067687 -0.03602,-0.1001728 l 0.153378,-0.106431 c 0.0365,-0.025349 0.04559,-0.075562 0.02028,-0.1121461 l -0.06971,-0.1004121 c -0.02537,-0.036568 -0.0756,-0.045628 -0.112147,-0.020266 l -0.153254,0.1063264 c -0.02519,-0.024592 -0.05226,-0.047645 -0.08105,-0.069087 l 0.07958,-0.16876177 c 0.01898,-0.0402577 0.0018,-0.0882891 -0.03851,-0.10725921 L 50.846417,0.8334966 c -0.04023,-0.0189847 -0.08824,-0.001732 -0.107254,0.0385102"
       style="fill:url(#linearGradient9562-7);fill-opacity:1;fill-rule:nonzero;stroke:none;stroke-width:0.00041361"
       id="path154-3-4-4-2-5" />
    <circle
       style="fill:url(#linearGradient2198);fill-opacity:1;stroke:none;stroke-width:0.00758201;stroke-linecap:round;stroke-linejoin:round;stroke-miterlimit:4;stroke-dasharray:none;stroke-opacity:1"
       id="path8749-9-3-8-8-2-3-5-8-4"
       cx="48.745129"
       cy="1.1499757"
       r="0.2211538" />
    <circle
       style="fill:url(#linearGradient2196);fill-opacity:1;stroke:none;stroke-width:0.00764186;stroke-linecap:round;stroke-linejoin:round;stroke-miterlimit:4;stroke-dasharray:none;stroke-opacity:1"
       id="path8749-9-3-8-8-2-3-5-275-5"
       cx="47.93018"
       cy="5.1026111"
       r="0.22289932" />
    <circle
       style="fill:url(#linearGradient2194);fill-opacity:1;stroke:none;stroke-width:0.00786896;stroke-linecap:round;stroke-linejoin:round;stroke-miterlimit:4;stroke-dasharray:none;stroke-opacity:1"
       id="path8749-9-3-8-8-2-3-5-23-8"
       cx="52.85944"
       cy="2.9559867"
       r="0.22952467" />
  </g>
</svg>
