<?xml version="1.0" encoding="UTF-8" standalone="no"?>
<svg
   xmlns:dc="http://purl.org/dc/elements/1.1/"
   xmlns:cc="http://creativecommons.org/ns#"
   xmlns:rdf="http://www.w3.org/1999/02/22-rdf-syntax-ns#"
   xmlns:svg="http://www.w3.org/2000/svg"
   xmlns="http://www.w3.org/2000/svg"
   xmlns:xlink="http://www.w3.org/1999/xlink"
   xmlns:sodipodi="http://sodipodi.sourceforge.net/DTD/sodipodi-0.dtd"
   xmlns:inkscape="http://www.inkscape.org/namespaces/inkscape"
   width="500"
   height="500"
   viewBox="0 0 132.29166 132.29167"
   version="1.1"
   id="svg1520"
   inkscape:export-filename="F:\projects\nextkind\logo\Nextkind Favicon\Nextkind Favicon 32.png"
   inkscape:export-xdpi="96"
   inkscape:export-ydpi="96"
   inkscape:version="1.0.1 (3bc2e813f5, 2020-09-07)"
   sodipodi:docname="Nextkind Icon 500.svg">
  <defs
     id="defs1514">
    <linearGradient
       inkscape:collect="always"
       xlink:href="#linearGradient1207"
       id="linearGradient9566"
       gradientUnits="userSpaceOnUse"
       gradientTransform="matrix(2.1916139,0,0,-2.1916139,-3973.4589,-1572.0235)"
       x1="1803.9467"
       y1="-776.80414"
       x2="1873.3606"
       y2="-776.80414" />
    <linearGradient
       inkscape:collect="always"
       id="linearGradient1207">
      <stop
         style="stop-color:#00faff;stop-opacity:1"
         offset="0"
         id="stop1203" />
      <stop
         style="stop-color:#006ec3;stop-opacity:1"
         offset="1"
         id="stop1205" />
    </linearGradient>
    <linearGradient
       inkscape:collect="always"
       xlink:href="#linearGradient1207"
       id="linearGradient9562"
       gradientUnits="userSpaceOnUse"
       gradientTransform="matrix(0.49580612,-0.59333001,-0.59333001,-0.49580612,-1350.1171,717.44415)"
       x1="1803.9467"
       y1="-776.80414"
       x2="1873.3606"
       y2="-776.80414" />
    <linearGradient
       inkscape:collect="always"
       xlink:href="#linearGradient1207"
       id="linearGradient9560"
       gradientUnits="userSpaceOnUse"
       gradientTransform="matrix(1.878784,0,0,1.878784,-3393.8259,-1339.8845)"
       x1="1803.9467"
       y1="-776.80414"
       x2="1873.3606"
       y2="-776.80414" />
    <linearGradient
       inkscape:collect="always"
       xlink:href="#linearGradient1207"
       id="linearGradient9562-7"
       gradientUnits="userSpaceOnUse"
       gradientTransform="matrix(0.27454476,-0.32854712,-0.32854712,-0.27454476,-683.60942,395.03809)"
       x1="1803.9467"
       y1="-776.80414"
       x2="1873.3606"
       y2="-776.80414" />
    <linearGradient
       inkscape:collect="always"
       xlink:href="#linearGradient1207"
       id="linearGradient2194"
       gradientUnits="userSpaceOnUse"
       gradientTransform="matrix(1.878784,0,0,1.878784,-3393.8259,-1339.8845)"
       x1="1803.9467"
       y1="-776.80414"
       x2="1873.3606"
       y2="-776.80414" />
    <linearGradient
       inkscape:collect="always"
       xlink:href="#linearGradient1207"
       id="linearGradient2196"
       gradientUnits="userSpaceOnUse"
       gradientTransform="matrix(1.878784,0,0,1.878784,-3393.8259,-1339.8845)"
       x1="1803.9467"
       y1="-776.80414"
       x2="1873.3606"
       y2="-776.80414" />
    <linearGradient
       inkscape:collect="always"
       xlink:href="#linearGradient1207"
       id="linearGradient2198"
       gradientUnits="userSpaceOnUse"
       gradientTransform="matrix(1.878784,0,0,1.878784,-3393.8259,-1339.8845)"
       x1="1803.9467"
       y1="-776.80414"
       x2="1873.3606"
       y2="-776.80414" />
    <linearGradient
       inkscape:collect="always"
       xlink:href="#linearGradient1207"
       id="linearGradient2200"
       gradientUnits="userSpaceOnUse"
       gradientTransform="matrix(1.878784,0,0,1.878784,-3393.8259,-1339.8845)"
       x1="1803.9467"
       y1="-776.80414"
       x2="1873.3606"
       y2="-776.80414" />
    <linearGradient
       inkscape:collect="always"
       xlink:href="#linearGradient1207"
       id="linearGradient2202"
       gradientUnits="userSpaceOnUse"
       gradientTransform="matrix(1.878784,0,0,1.878784,-3393.8259,-1339.8845)"
       x1="1803.9467"
       y1="-776.80414"
       x2="1873.3606"
       y2="-776.80414" />
    <linearGradient
       inkscape:collect="always"
       xlink:href="#linearGradient1207"
       id="linearGradient2204"
       gradientUnits="userSpaceOnUse"
       gradientTransform="matrix(1.878784,0,0,1.878784,-3393.6637,-1338.2936)"
       x1="1803.9467"
       y1="-776.80414"
       x2="1873.3606"
       y2="-776.80414" />
    <linearGradient
       inkscape:collect="always"
       xlink:href="#linearGradient1207"
       id="linearGradient2206"
       gradientUnits="userSpaceOnUse"
       gradientTransform="matrix(1.878784,0,0,1.878784,-3393.8259,-1339.8845)"
       x1="1803.9467"
       y1="-776.80414"
       x2="1873.3606"
       y2="-776.80414" />
    <linearGradient
       inkscape:collect="always"
       xlink:href="#linearGradient1207"
       id="linearGradient2208"
       gradientUnits="userSpaceOnUse"
       gradientTransform="matrix(1.878784,0,0,1.878784,-3393.8259,-1339.8845)"
       x1="1803.9467"
       y1="-776.80414"
       x2="1873.3606"
       y2="-776.80414" />
    <linearGradient
       inkscape:collect="always"
       xlink:href="#linearGradient1207"
       id="linearGradient2210"
       gradientUnits="userSpaceOnUse"
       gradientTransform="matrix(1.878784,0,0,1.878784,-3393.8259,-1339.8845)"
       x1="1803.9467"
       y1="-776.80414"
       x2="1873.3606"
       y2="-776.80414" />
    <linearGradient
       inkscape:collect="always"
       xlink:href="#linearGradient1207"
       id="linearGradient2212"
       gradientUnits="userSpaceOnUse"
       gradientTransform="matrix(1.878784,0,0,1.878784,-3393.8259,-1339.8845)"
       x1="1803.9467"
       y1="-776.80414"
       x2="1873.3606"
       y2="-776.80414" />
    <linearGradient
       inkscape:collect="always"
       xlink:href="#linearGradient1207"
       id="linearGradient2214"
       gradientUnits="userSpaceOnUse"
       gradientTransform="matrix(1.878784,0,0,1.878784,-3393.8259,-1339.8845)"
       x1="1803.9467"
       y1="-776.80414"
       x2="1873.3606"
       y2="-776.80414" />
    <linearGradient
       inkscape:collect="always"
       xlink:href="#linearGradient1207"
       id="linearGradient2216"
       gradientUnits="userSpaceOnUse"
       gradientTransform="matrix(1.878784,0,0,1.878784,-3393.8259,-1339.8845)"
       x1="1803.9467"
       y1="-776.80414"
       x2="1873.3606"
       y2="-776.80414" />
  </defs>
  <sodipodi:namedview
     id="base"
     pagecolor="#ffffff"
     bordercolor="#666666"
     borderopacity="1.0"
     inkscape:pageopacity="0.0"
     inkscape:pageshadow="2"
     inkscape:zoom="1.3634091"
     inkscape:cx="79.365097"
     inkscape:cy="241.39403"
     inkscape:document-units="mm"
     inkscape:current-layer="layer1"
     inkscape:document-rotation="0"
     showgrid="true"
     units="px"
     borderlayer="true"
     inkscape:showpageshadow="false"
     inkscape:window-width="1920"
     inkscape:window-height="1027"
     inkscape:window-x="-8"
     inkscape:window-y="-8"
     inkscape:window-maximized="1"
     inkscape:snap-global="false" />
  <metadata
     id="metadata1517">
    <rdf:RDF>
      <cc:Work
         rdf:about="">
        <dc:format>image/svg+xml</dc:format>
        <dc:type
           rdf:resource="http://purl.org/dc/dcmitype/StillImage" />
        <dc:title></dc:title>
      </cc:Work>
    </rdf:RDF>
  </metadata>
  <g
     inkscape:label="Layer 1"
     inkscape:groupmode="layer"
     id="layer1">
    <path
       style="fill:url(#linearGradient9566);fill-opacity:1;stroke:none;stroke-width:0.821861;stroke-linecap:butt;stroke-linejoin:miter;stroke-miterlimit:4;stroke-dasharray:none;stroke-opacity:1"
       d="M 122.12133,33.014782 C 116.93813,62.25348 101.81519,68.50601 84.347418,69.336016 114.60636,84.011858 112.52107,106.38865 111.07983,128.6122 139.84855,80.950043 134.79635,54.582655 122.12133,33.014782 Z"
       id="path8730-8"
       sodipodi:nodetypes="cccc" />
    <path
       d="m 53.139531,36.050139 c -0.903542,1.91609 -3.189161,2.737058 -5.105572,1.834165 -1.916102,-0.903806 -2.737069,-3.1894 -1.833724,-5.105916 0.903409,-1.916037 3.189159,-2.737149 5.105463,-1.833498 1.916012,0.903272 2.737083,3.189398 1.833833,5.105249 z m -0.293343,-12.361115 -0.954773,2.025494 c -0.417054,-0.106149 -0.837043,-0.182911 -1.257682,-0.22832 l -0.18585,-2.230362 c -0.04523,-0.532554 -0.511855,-0.927832 -1.041582,-0.886669 l -1.461941,0.122184 c -0.532555,0.04397 -0.928099,0.511714 -0.883764,1.043844 l 0.186103,2.232231 c -0.410841,0.115117 -0.812762,0.259901 -1.202731,0.432043 l -1.277091,-1.840677 c -0.3049,-0.438821 -0.907136,-0.547796 -1.345973,-0.243323 l -1.205526,0.836115 c -0.43922,0.304912 -0.547789,0.907526 -0.24305,1.346447 l 1.275586,1.838942 c -0.29508,0.302367 -0.571172,0.628134 -0.825215,0.975889 l -2.025571,-0.954769 c -0.483163,-0.227785 -1.059251,-0.0212 -1.287413,0.462322 l -0.62559,1.326706 c -0.227784,0.483303 -0.01963,1.059392 0.462322,1.287412 l 2.025612,0.955174 c -0.106166,0.416919 -0.18279,0.83745 -0.228036,1.257808 l -2.230924,0.185444 c -0.532272,0.04397 -0.928083,0.511824 -0.883638,1.04397 l 0.122184,1.461831 c 0.04523,0.532398 0.511557,0.927974 1.041316,0.886685 l 2.232576,-0.185569 c 0.115117,0.410668 0.259901,0.812212 0.431666,1.202071 l -1.840482,1.277189 c -0.439094,0.304503 -0.547663,0.9074 -0.24305,1.346431 l 0.835833,1.205134 c 0.304911,0.438969 0.9074,0.547788 1.3464,0.24305 l 1.838891,-1.275744 c 0.30276,0.295489 0.628778,0.571157 0.972701,0.829221 L 43.412667,43.6927 c -0.22791,0.483288 -0.01963,1.059518 0.462196,1.287412 l 1.327099,0.625324 c 0.483162,0.22791 1.059518,0.0212 1.287145,-0.462055 l 0.955157,-2.025818 c 0.417045,0.107579 0.837576,0.183041 1.257934,0.228319 l 0.18557,2.230677 c 0.04523,0.53268 0.511431,0.928083 1.041582,0.886685 l 1.462209,-0.122184 c 0.532146,-0.04523 0.927832,-0.511432 0.883905,-1.04397 L 52.08963,43.064636 c 0.410543,-0.115117 0.811946,-0.259901 1.201946,-0.431917 l 1.277738,1.840493 c 0.303954,0.438968 0.906866,0.548071 1.345992,0.243332 l 1.20526,-0.836649 c 0.438701,-0.304393 0.54727,-0.906992 0.242924,-1.34574 l -1.276044,-1.839171 c 0.295614,-0.302618 0.571833,-0.628496 0.825499,-0.976015 l 2.025385,0.954766 c 0.483304,0.227785 1.059801,0.0212 1.287413,-0.462322 l 0.625574,-1.326847 c 0.22791,-0.483445 0.01963,-1.059659 -0.462322,-1.287412 L 58.36349,36.642492 c 0.106166,-0.417736 0.183167,-0.837576 0.228444,-1.257934 l 2.230384,-0.185821 c 0.532555,-0.04397 0.928115,-0.51184 0.883764,-1.04386 l -0.122184,-1.462271 c -0.04523,-0.532398 -0.511714,-0.927942 -1.041599,-0.88667 l -2.232229,0.186069 c -0.115274,-0.410291 -0.260309,-0.812337 -0.432341,-1.202322 l 1.840995,-1.277471 c 0.438576,-0.304236 0.54727,-0.906866 0.243725,-1.346039 l -0.836602,-1.205244 c -0.305041,-0.438967 -0.90753,-0.547672 -1.346194,-0.24331 l -1.839328,1.27615 C 55.637701,27.698555 55.31261,27.421936 54.967369,27.16455 l 0.954916,-2.025574 c 0.227518,-0.483178 0.01963,-1.05966 -0.462322,-1.287413 l -1.326847,-0.62559 c -0.483178,-0.22791 -1.059251,-0.0212 -1.287412,0.462196"
       style="fill:url(#linearGradient9562);fill-opacity:1;fill-rule:nonzero;stroke:none;stroke-width:0.00496417"
       id="path154-3-4-4-2" />
    <circle
       style="fill:url(#linearGradient9560);fill-opacity:1;stroke:none;stroke-width:0.384297;stroke-linecap:round;stroke-linejoin:round;stroke-miterlimit:4;stroke-dasharray:none;stroke-opacity:1"
       id="path8749-9-2"
       cx="98.968513"
       cy="41.531063"
       r="11.209225" />
    <circle
       style="fill:url(#linearGradient2216);fill-opacity:1;stroke:none;stroke-width:0.234848;stroke-linecap:round;stroke-linejoin:round;stroke-miterlimit:4;stroke-dasharray:none;stroke-opacity:1"
       id="path8749-9-3-81"
       cx="49.273872"
       cy="12.760749"
       r="6.8500829" />
    <circle
       style="fill:url(#linearGradient2214);fill-opacity:1;stroke:none;stroke-width:0.0353158;stroke-linecap:round;stroke-linejoin:round;stroke-miterlimit:4;stroke-dasharray:none;stroke-opacity:1"
       id="path8749-9-3-8-8-2-3-5-3-1"
       cx="1.0638137"
       cy="41.674824"
       r="1.0300943" />
    <circle
       style="fill:url(#linearGradient2212);fill-opacity:1;stroke:none;stroke-width:0.0834841;stroke-linecap:round;stroke-linejoin:round;stroke-miterlimit:4;stroke-dasharray:none;stroke-opacity:1"
       id="path8749-9-3-8-8-2-3-5-5-2"
       cx="13.840463"
       cy="34.12056"
       r="2.4350805" />
    <circle
       style="fill:url(#linearGradient2210);fill-opacity:1;stroke:none;stroke-width:0.067472;stroke-linecap:round;stroke-linejoin:round;stroke-miterlimit:4;stroke-dasharray:none;stroke-opacity:1"
       id="path8749-9-3-8-8-2-3-5-9-6"
       cx="32.305023"
       cy="24.686193"
       r="1.9680295" />
    <circle
       style="fill:url(#linearGradient2208);fill-opacity:1;stroke:none;stroke-width:0.0343797;stroke-linecap:round;stroke-linejoin:round;stroke-miterlimit:4;stroke-dasharray:none;stroke-opacity:1"
       id="path8749-9-3-8-8-2-3-5-91-7"
       cx="15.52206"
       cy="21.72814"
       r="1.0027906" />
    <circle
       style="fill:url(#linearGradient2206);fill-opacity:1;stroke:none;stroke-width:0.0525269;stroke-linecap:round;stroke-linejoin:round;stroke-miterlimit:4;stroke-dasharray:none;stroke-opacity:1"
       id="path8749-9-3-8-8-2-3-5-29-9"
       cx="30.249893"
       cy="12.542905"
       r="1.5321152" />
    <circle
       style="fill:url(#linearGradient2204);fill-opacity:1;stroke:none;stroke-width:0.0621342;stroke-linecap:round;stroke-linejoin:round;stroke-miterlimit:4;stroke-dasharray:none;stroke-opacity:1"
       id="path8749-9-3-8-8-2-3-5-293-9"
       cx="66.997437"
       cy="7.8751197"
       r="1.8123456" />
    <circle
       style="fill:url(#linearGradient2202);fill-opacity:1;stroke:none;stroke-width:0.067472;stroke-linecap:round;stroke-linejoin:round;stroke-miterlimit:4;stroke-dasharray:none;stroke-opacity:1"
       id="path8749-9-3-8-8-2-3-5-21-1"
       cx="66.243935"
       cy="15.905644"
       r="1.9680295" />
    <circle
       style="fill:url(#linearGradient2200);fill-opacity:1;stroke:none;stroke-width:0.128319;stroke-linecap:round;stroke-linejoin:round;stroke-miterlimit:4;stroke-dasharray:none;stroke-opacity:1"
       id="path8749-9-3-8-8-2-3-5-7-1"
       cx="76.42514"
       cy="23.40955"
       r="3.7428238" />
    <path
       d="m 93.421528,17.727006 c -0.500422,1.060962 -1.766017,1.515605 -2.827132,1.015716 -1.060963,-0.500422 -1.515731,-1.766086 -1.015434,-2.827319 0.500139,-1.060963 1.765952,-1.515668 2.827174,-1.015324 1.060837,0.50014 1.51559,1.766085 1.015434,2.826961 z m -0.162442,-6.844776 -0.528691,1.121595 c -0.231099,-0.05921 -0.463516,-0.10114 -0.696467,-0.126457 l -0.103653,-1.23503 c -0.02387,-0.294826 -0.283443,-0.513772 -0.576795,-0.490959 l -0.809558,0.06758 C 90.248999,10.243409 90.029962,10.5023 90.05454,10.797 l 0.102397,1.236058 c -0.227235,0.06392 -0.449978,0.144014 -0.666078,0.239218 L 88.783786,11.25308 c -0.168853,-0.242981 -0.502289,-0.303322 -0.745318,-0.134866 l -0.667539,0.463004 c -0.243332,0.168804 -0.303435,0.502544 -0.134591,0.745572 l 0.706424,1.018277 c -0.163441,0.167462 -0.316172,0.347817 -0.457014,0.540407 l -1.121662,-0.528613 c -0.267345,-0.12611 -0.586407,-0.01149 -0.7128,0.256038 l -0.346451,0.734662 c -0.126111,0.267643 -0.01197,0.586627 0.256179,0.71291 l 1.121647,0.528958 c -0.05968,0.230816 -0.100826,0.463641 -0.126111,0.696467 l -1.235366,0.102396 c -0.294797,0.02387 -0.513819,0.283396 -0.48924,0.578068 l 0.06769,0.809416 c 0.02387,0.294798 0.283396,0.513819 0.576607,0.491 l 1.236292,-0.102397 c 0.06502,0.227392 0.144015,0.449711 0.239045,0.665685 l -1.018889,0.707225 c -0.243332,0.168703 -0.303309,0.502401 -0.134905,0.745592 l 0.462856,0.667271 c 0.168985,0.24305 0.5024,0.30331 0.745466,0.134749 l 1.018229,-0.70644 c 0.167651,0.163599 0.348304,0.316298 0.538633,0.45915 l -0.528691,1.121646 c -0.126111,0.267597 -0.01197,0.586705 0.255927,0.712926 l 0.734693,0.346325 c 0.267345,0.126111 0.586705,0.0115 0.712658,-0.255912 l 0.528958,-1.121772 c 0.231099,0.05968 0.463924,0.100826 0.696593,0.126111 l 0.103652,1.23524 c 0.02387,0.294955 0.28327,0.51396 0.576733,0.490999 l 0.809558,-0.06769 c 0.294672,-0.02529 0.513693,-0.28327 0.489523,-0.578067 L 92.838917,21.61111 c 0.227235,-0.06376 0.449585,-0.144014 0.665685,-0.239202 l 0.707492,1.019141 c 0.168326,0.24305 0.50215,0.303435 0.745325,0.134905 l 0.667413,-0.463248 c 0.242908,-0.168577 0.303042,-0.502275 0.134591,-0.745184 l -0.706691,-1.018371 c 0.163599,-0.167524 0.316565,-0.348021 0.457014,-0.540516 l 1.121505,0.528691 c 0.267597,0.12611 0.586831,0.01149 0.712941,-0.256054 l 0.346451,-0.734692 c 0.126111,-0.267597 0.01196,-0.586705 -0.256179,-0.7128 l -1.121505,-0.528691 c 0.05968,-0.23135 0.100826,-0.463767 0.126111,-0.696593 L 97.674059,17.2561 c 0.294923,-0.02387 0.51396,-0.283396 0.489381,-0.578067 L 98.09575,15.868349 C 98.07188,15.573552 97.812355,15.354531 97.518892,15.37735 l -1.236041,0.103652 C 96.217834,15.253736 96.138524,15.03115 96.0434,14.815191 l 1.019407,-0.707382 c 0.242641,-0.168467 0.303043,-0.502213 0.134905,-0.745341 l -0.463374,-0.667382 c -0.168576,-0.243049 -0.502401,-0.303262 -0.745325,-0.134905 l -1.018496,0.706691 C 94.803134,13.10343 94.623139,12.950213 94.431869,12.807707 l 0.528958,-1.121643 c 0.126111,-0.267559 0.01197,-0.586795 -0.255928,-0.712855 l -0.734692,-0.346414 c -0.267345,-0.126236 -0.586438,-0.01151 -0.712816,0.255948"
       style="fill:url(#linearGradient9562-7);fill-opacity:1;fill-rule:nonzero;stroke:none;stroke-width:0.00274899"
       id="path154-3-4-4-2-5" />
    <circle
       style="fill:url(#linearGradient2198);fill-opacity:1;stroke:none;stroke-width:0.050392;stroke-linecap:round;stroke-linejoin:round;stroke-miterlimit:4;stroke-dasharray:none;stroke-opacity:1"
       id="path8749-9-3-8-8-2-3-5-8-4"
       cx="80.006012"
       cy="12.729585"
       r="1.4698416" />
    <circle
       style="fill:url(#linearGradient2196);fill-opacity:1;stroke:none;stroke-width:0.0507896;stroke-linecap:round;stroke-linejoin:round;stroke-miterlimit:4;stroke-dasharray:none;stroke-opacity:1"
       id="path8749-9-3-8-8-2-3-5-275-5"
       cx="74.589645"
       cy="38.999767"
       r="1.4814429" />
    <circle
       style="fill:url(#linearGradient2194);fill-opacity:1;stroke:none;stroke-width:0.052299;stroke-linecap:round;stroke-linejoin:round;stroke-miterlimit:4;stroke-dasharray:none;stroke-opacity:1"
       id="path8749-9-3-8-8-2-3-5-23-8"
       cx="107.35069"
       cy="24.732777"
       r="1.5254766" />
  </g>
</svg>
